# This file uses meters as units for non-parametric coordinates.

mtllib Arma_Jugador.mtl
g default
v -2.132250 -0.444303 -0.154792
v -2.544566 -0.444269 -0.154792
v -2.132265 0.048466 -0.154510
v -2.544589 0.048401 -0.155331
v 0.619454 0.048439 -0.154445
v -0.080546 0.048439 -0.154445
v 0.619454 0.348439 -0.154445
v -0.080546 0.348439 -0.154445
v 0.619454 0.348439 0.345555
v -0.080546 0.348439 0.345555
v 0.619454 0.048439 0.345555
v -0.080546 0.048439 0.345555
v -0.798119 0.048439 0.345555
v -0.798119 0.048439 -0.154445
v -0.798119 0.348439 0.345555
v -0.798119 0.348439 -0.154445
v 1.295651 0.048439 0.345555
v 1.295651 0.048439 -0.154445
v 1.295651 0.348439 -0.154445
v 1.295651 0.348439 0.345555
v 0.619454 0.565815 -0.154445
v -0.080546 0.565815 -0.154445
v -0.080546 0.565815 0.345555
v 0.619454 0.565815 0.345555
v -0.798119 0.565815 -0.154445
v -0.798119 0.565815 0.345555
v 1.295651 0.565815 0.345555
v 1.295651 0.565815 -0.154445
v 1.833628 0.048439 0.345555
v 1.833628 0.048439 -0.154445
v 1.833628 0.348439 -0.154445
v 1.833628 0.348439 0.345555
v 1.833628 0.465815 -0.154445
v 1.833628 0.465815 0.345555
v 0.619454 -0.264611 0.345555
v -0.080546 -0.264611 0.345555
v -0.080546 -0.264611 -0.154445
v 0.619454 -0.264611 -0.154445
v -0.798119 -0.264611 0.345555
v -0.798119 -0.264611 -0.154445
v 1.295651 -0.264611 -0.154445
v 1.295651 -0.264611 0.345555
v 1.833628 -0.164611 -0.154445
v 1.833628 -0.164611 0.345555
v -1.278010 0.048439 0.345555
v -1.278010 0.048439 -0.154445
v -1.278010 0.348439 0.345555
v -1.278010 0.348439 -0.154445
v -1.278010 0.565815 0.345555
v -1.278010 0.565815 -0.154445
v -2.132233 0.048439 0.345555
v -2.132233 0.348439 0.345555
v -2.132233 0.348439 -0.154445
v -2.132233 0.565815 0.345555
v -2.132233 0.565815 -0.154445
v -2.544583 0.048439 0.345555
v -2.544583 0.348439 0.345555
v -2.544583 0.348439 -0.154445
v -2.544583 0.565815 0.345555
v -2.544583 0.565815 -0.154445
v -2.132233 -0.444278 0.345555
v -2.544583 -0.444278 0.345555
v -0.280546 -0.632140 0.345555
v -0.280546 -0.632140 -0.154445
v -0.798119 -0.632140 0.345555
v -0.798119 -0.632140 -0.154445
v 0.619454 0.712098 -0.154445
v -0.080546 0.673063 -0.161799
v -0.080546 0.673063 0.338201
v 0.619454 0.712098 0.345555
v -0.798119 0.646075 -0.154646
v -0.798119 0.646075 0.345354
v 1.295651 0.712098 0.345555
v 1.295651 0.712098 -0.154445
v -1.278010 0.612098 -0.154445
v -1.278010 0.612098 0.345555
v 2.159789 0.107922 0.176577
v 2.166248 0.105035 0.002412
v 2.166248 0.261861 0.000539
v 2.159789 0.264749 0.174703
vt 0.028811 0.314555
vt 0.247950 0.314555
vt 0.028811 0.533694
vt 0.247950 0.533694
vt 0.396502 0.294378
vt 0.566730 0.294378
vt 0.566730 0.464606
vt 0.396502 0.464606
vt 0.377848 0.762138
vt 0.559472 0.762138
vt 0.559472 0.943762
vt 0.377848 0.943762
vt 0.399674 0.294729
vt 0.569902 0.294729
vt 0.569902 0.464957
vt 0.399674 0.464957
vt 0.760236 0.426443
vt 0.930464 0.426443
vt 0.930464 0.596671
vt 0.760236 0.596671
vt 0.396626 0.294877
vt 0.567418 0.294877
vt 0.567418 0.465669
vt 0.396626 0.465669
vt 0.063563 0.787673
vt 0.207200 0.787673
vt 0.207200 0.931310
vt 0.063563 0.931310
vt 0.365869 0.100957
vt 0.615869 0.100957
vt 0.615869 0.100957
vt 0.365869 0.100957
vt 0.569795 0.294378
vt 0.569795 0.464606
vt 0.569795 0.464606
vt 0.569795 0.294378
vt 0.567333 0.761765
vt 0.385709 0.761765
vt 0.385709 0.761765
vt 0.567333 0.761765
vt 0.566730 0.464606
vt 0.566730 0.294378
vt 0.566730 0.294378
vt 0.566730 0.464606
vt 0.758304 0.423486
vt 0.928532 0.423486
vt 0.928532 0.423486
vt 0.758304 0.423486
vt 0.396502 0.294378
vt 0.396502 0.464606
vt 0.396502 0.464606
vt 0.396502 0.294378
vt 0.597568 0.760747
vt 0.347568 0.760747
vt 0.347568 0.760747
vt 0.597568 0.760747
vt 0.395970 0.464606
vt 0.395970 0.294378
vt 0.395970 0.294378
vt 0.395970 0.464606
vt 0.523329 0.233609
vt 0.647973 0.233609
vt 0.647973 0.233609
vt 0.523329 0.233609
vt 0.571873 0.238732
vt 0.447229 0.238732
vt 0.447229 0.238732
vt 0.571873 0.238732
vt 0.626637 0.231732
vt 0.626637 0.231732
vt 0.626637 0.231732
vt 0.626637 0.231732
vt 0.402357 0.237909
vt 0.549793 0.237909
vt 0.549793 0.237909
vt 0.402357 0.237909
vt 0.449953 0.244303
vt 0.449953 0.244303
vt 0.449953 0.244303
vt 0.449953 0.244303
vt 0.382739 0.238592
vt 0.382739 0.238592
vt 0.382739 0.238592
vt 0.382739 0.238592
vt 0.382739 0.238592
vt 0.507382 0.238592
vt 0.507382 0.238592
vt 0.382739 0.238592
vt 0.507382 0.238592
vt 0.507382 0.238592
vt 0.507382 0.238592
vt 0.507382 0.238592
vt 0.758304 0.468064
vt 0.928532 0.468064
vt 0.928532 0.468064
vt 0.758304 0.468064
vt 0.396502 0.294378
vt 0.396502 0.464606
vt 0.396502 0.464606
vt 0.396502 0.294378
vt 0.395970 0.464606
vt 0.395970 0.294378
vt 0.395970 0.294378
vt 0.395970 0.464606
vt 0.507382 0.238592
vt 0.507382 0.238592
vt 0.507382 0.238592
vt 0.507382 0.238592
vt 0.597568 0.760747
vt 0.347568 0.760747
vt 0.347568 0.760747
vt 0.597568 0.760747
vt 0.382739 0.238592
vt 0.382739 0.238592
vt 0.382739 0.238592
vt 0.382739 0.238592
vt 0.407602 0.179168
vt 0.577830 0.179168
vt 0.577830 0.179168
vt 0.407602 0.179168
vt 0.577632 0.179259
vt 0.407404 0.179259
vt 0.407404 0.179259
vt 0.577632 0.179259
vt 0.582521 0.171643
vt 0.582521 0.171643
vt 0.582521 0.171643
vt 0.582521 0.171643
vt 0.626038 0.175700
vt 0.376038 0.175700
vt 0.376038 0.175700
vt 0.626038 0.175700
vt 0.612561 0.175700
vt 0.612561 0.175700
vt 0.612561 0.175700
vt 0.612561 0.175700
vt 0.409228 0.174761
vt 0.409228 0.174761
vt 0.409228 0.174761
vt 0.409228 0.174761
vt 0.408695 0.175543
vt 0.408695 0.175543
vt 0.408695 0.175543
vt 0.408695 0.175543
vt 0.409228 0.175384
vt 0.409228 0.175384
vt 0.409228 0.175384
vt 0.409228 0.175384
vt 0.578923 0.175057
vt 0.408695 0.175057
vt 0.408695 0.175057
vt 0.578923 0.175057
vt 0.408695 0.177044
vt 0.408695 0.177044
vt 0.408695 0.177044
vt 0.408695 0.177044
vt 0.070390 0.171652
vt 0.217826 0.171652
vt 0.217826 0.171652
vt 0.070390 0.171652
vt 0.567418 0.294877
vt 0.567418 0.465669
vt 0.567418 0.465669
vt 0.567418 0.294877
vt 0.396626 0.465669
vt 0.396626 0.294877
vt 0.396626 0.294877
vt 0.396626 0.465669
vt 0.454018 0.232108
vt 0.454018 0.232108
vt 0.454018 0.232108
vt 0.454018 0.232108
vt 0.571862 0.762402
vt 0.390238 0.762402
vt 0.390238 0.762402
vt 0.571862 0.762402
vt 0.632026 0.238592
vt 0.632026 0.238592
vt 0.632026 0.238592
vt 0.632026 0.238592
vt 0.071309 0.171652
vt 0.218745 0.171652
vt 0.218745 0.171652
vt 0.071309 0.171652
vt 0.567418 0.294877
vt 0.567418 0.465669
vt 0.567418 0.465669
vt 0.567418 0.294877
vt 0.396626 0.465669
vt 0.396626 0.294877
vt 0.396626 0.294877
vt 0.396626 0.465669
vt 0.480294 0.240325
vt 0.480294 0.240325
vt 0.480294 0.240325
vt 0.480294 0.240325
vt 0.552590 0.402596
vt 0.405154 0.402596
vt 0.405154 0.402596
vt 0.552590 0.402596
vt 0.402357 0.237909
vt 0.402357 0.237909
vt 0.402357 0.237909
vt 0.402357 0.237909
vt 0.053231 0.122305
vt 0.200666 0.122305
vt 0.200666 0.122305
vt 0.053231 0.122305
vt 0.567418 0.294877
vt 0.567418 0.465669
vt 0.567418 0.465669
vt 0.567418 0.294877
vt 0.396626 0.465669
vt 0.396626 0.294877
vt 0.396626 0.294877
vt 0.396626 0.465669
vt 0.549793 0.237909
vt 0.549793 0.237909
vt 0.549793 0.237909
vt 0.549793 0.237909
vt 0.552590 0.402596
vt 0.405154 0.402596
vt 0.405154 0.402596
vt 0.552590 0.402596
vt 0.402357 0.237909
vt 0.402357 0.237909
vt 0.402357 0.237909
vt 0.402357 0.237909
vt 0.042098 0.334572
vt 0.189534 0.334572
vt 0.189534 0.334572
vt 0.042098 0.334572
vt 0.109841 0.339165
vt 0.109841 0.339165
vt 0.109841 0.339165
vt 0.109841 0.339165
vt 0.189534 0.334572
vt 0.042098 0.334572
vt 0.042098 0.334572
vt 0.189534 0.334572
vt 0.365869 0.096660
vt 0.615869 0.096660
vt 0.615869 0.096660
vt 0.365869 0.096660
vt 0.615869 0.096660
vt 0.615869 0.096660
vt 0.615869 0.096660
vt 0.615869 0.096660
vt 0.615869 0.096660
vt 0.365869 0.096660
vt 0.365869 0.096660
vt 0.615869 0.096660
vt 0.498293 0.086277
vt 0.498293 0.086277
vt 0.498293 0.086277
vt 0.498293 0.086277
vt 0.742222 0.876618
vt 0.923846 0.876618
vt 0.923846 0.876618
vt 0.742222 0.876618
vt 0.923846 0.873133
vt 0.742222 0.873133
vt 0.742222 0.873133
vt 0.923846 0.873133
vt 0.827660 0.871157
vt 0.827660 0.871157
vt 0.827660 0.871157
vt 0.827660 0.871157
vt 0.863899 0.876846
vt 0.863899 0.876846
vt 0.863899 0.876846
vt 0.863899 0.876846
vt 0.826424 0.881430
vt 0.826424 0.881430
vt 0.826424 0.881430
vt 0.826424 0.881430
vt 0.711942 0.878279
vt 0.961942 0.878279
vt 0.961942 0.878279
vt 0.711942 0.878279
vt 0.742222 0.889051
vt 0.742222 0.889051
vt 0.742222 0.889051
vt 0.742222 0.889051
vt 0.852151 0.890766
vt 0.852151 0.890766
vt 0.852151 0.890766
vt 0.852151 0.890766
vt 0.754613 0.880683
vt 0.936237 0.880683
vt 0.936237 0.880683
vt 0.754613 0.880683
vt 0.799054 0.882499
vt 0.799054 0.882499
vt 0.799054 0.882499
vt 0.799054 0.882499
vt 0.063563 0.787673
vt 0.207200 0.787673
vt 0.207200 0.787673
vt 0.063563 0.787673
vt 0.207200 0.787673
vt 0.207200 0.931310
vt 0.207200 0.931310
vt 0.207200 0.787673
vt 0.207200 0.931310
vt 0.063563 0.931310
vt 0.063563 0.931310
vt 0.207200 0.931310
vt 0.063563 0.931310
vt 0.063563 0.787673
vt 0.063563 0.787673
vt 0.063563 0.931310
vn 0.000996 -0.000262 -0.999999
vn 0.000996 -0.000262 -0.999999
vn 0.000996 -0.000262 -1.000000
vn 0.000996 -0.000262 -0.999999
vn 0.000000 -0.000000 -1.000000
vn 0.000000 -0.000000 -1.000000
vn 0.000000 -0.000000 -1.000000
vn 0.000000 -0.000000 -1.000000
vn -0.028446 0.999595 -0.000000
vn -0.046523 0.998917 -0.000000
vn -0.046526 0.998917 -0.000000
vn -0.028260 0.999601 -0.000000
vn -0.000000 0.000000 1.000000
vn -0.000000 0.000000 1.000000
vn -0.000000 0.000000 1.000000
vn -0.000000 0.000000 1.000000
vn -0.000000 -1.000000 0.000000
vn -0.000000 -1.000000 0.000000
vn -0.000000 -1.000000 0.000000
vn -0.000000 -1.000000 0.000000
vn -1.000000 -0.000010 -0.000004
vn -1.000000 -0.000010 -0.000004
vn -1.000000 0.000007 0.000004
vn -1.000000 0.000007 0.000004
vn 0.999313 0.000442 0.037052
vn 0.999313 0.000442 0.037052
vn 0.999313 0.000442 0.037052
vn 0.999313 0.000442 0.037052
vn -0.000000 -1.000000 0.000000
vn -0.000000 -1.000000 0.000000
vn -0.000000 -1.000000 0.000000
vn -0.000000 -1.000000 0.000000
vn -0.000000 0.000000 1.000000
vn -0.000000 0.000000 1.000000
vn -0.050793 0.998709 -0.000000
vn -0.050898 0.998704 -0.000000
vn 0.000000 -0.000000 -1.000000
vn 0.000000 -0.000000 -1.000000
vn 0.082083 -0.996625 0.000000
vn 0.082083 -0.996625 0.000000
vn 0.000000 -0.000000 -1.000000
vn 0.000000 -0.000000 -1.000000
vn 0.000000 1.000000 -0.000000
vn 0.000000 1.000000 -0.000000
vn -0.000000 0.000000 1.000000
vn -0.000000 0.000000 1.000000
vn 0.000546 -0.011384 -0.999935
vn 0.001105 -0.005287 -0.999985
vn -0.001105 0.005287 0.999985
vn -0.000546 0.011384 0.999935
vn -0.000807 -0.007708 -0.999970
vn -1.000000 0.000000 -0.000000
vn -1.000000 0.000000 -0.000000
vn 0.000807 0.007708 0.999970
vn -0.000000 0.000000 1.000000
vn 1.000000 0.000000 0.000000
vn 1.000000 0.000000 0.000000
vn 1.000000 0.000000 0.000000
vn 1.000000 0.000000 0.000000
vn 0.000000 -0.000000 -1.000000
vn 0.182751 -0.983159 0.000000
vn 0.182751 -0.983159 0.000000
vn 0.095540 -0.000836 -0.995425
vn 0.086192 -0.000754 -0.996278
vn 0.093838 0.000739 0.995587
vn 0.105013 0.000826 0.994471
vn 0.000000 -0.000000 -1.000000
vn 0.182751 0.983159 0.000000
vn 0.182751 0.983159 0.000000
vn 0.182751 0.983159 0.000000
vn 0.182751 0.983159 0.000000
vn -0.000000 0.000000 1.000000
vn -0.000000 0.000000 1.000000
vn -0.000000 0.000000 1.000000
vn 0.000000 -0.000000 -1.000000
vn 0.000000 -0.000000 -1.000000
vn -0.000000 0.000000 1.000000
vn -1.000000 0.000000 -0.000000
vn -1.000000 0.000000 -0.000000
vn -1.000000 0.000000 -0.000000
vn -1.000000 0.000000 -0.000000
vn 0.000000 -0.000000 -1.000000
vn 0.000000 -0.000000 -1.000000
vn -0.000000 0.000000 1.000000
vn 0.000000 -0.000000 -1.000000
vn 1.000000 0.000000 0.000000
vn 1.000000 0.000000 0.000000
vn 1.000000 0.000000 0.000000
vn 1.000000 0.000000 0.000000
vn -0.000000 0.000000 1.000000
vn -0.000000 -1.000000 0.000000
vn -0.000000 -1.000000 0.000000
vn -0.000010 -1.000000 -0.000017
vn -0.000010 -1.000000 -0.000017
vn -0.000000 0.000000 1.000000
vn -0.000000 0.000000 1.000000
vn 0.000024 0.000070 -1.000000
vn 0.000014 0.000040 -1.000000
vn 0.000015 0.000151 1.000000
vn -0.070624 0.997503 -0.000000
vn -0.070624 0.997503 -0.000000
vn -0.000015 -0.000151 -1.000000
vn -0.000016 -1.000000 -0.000027
vn -0.000016 -1.000000 -0.000027
vn -0.000000 0.000000 1.000000
vn -0.000000 0.000000 1.000000
vn 0.000350 0.000590 -1.000000
vn 0.000203 0.000342 -1.000000
vn -0.000000 0.000000 1.000000
vn 0.000000 1.000000 -0.000000
vn 0.000000 1.000000 -0.000000
vn 0.000000 1.000000 -0.000000
vn 0.000000 1.000000 -0.000000
vn 0.000000 -0.000000 -1.000000
vn -0.000042 -1.000000 0.000017
vn -0.000042 -1.000000 0.000017
vn -0.000042 -1.000000 0.000017
vn -0.000042 -1.000000 0.000017
vn -0.000000 0.000000 1.000000
vn -0.000000 0.000000 1.000000
vn 0.000996 0.001586 -0.999998
vn 0.000577 0.000920 -0.999999
vn -0.000000 0.000000 1.000000
vn 0.000000 1.000000 -0.000000
vn 0.000000 1.000000 -0.000000
vn 0.000000 -0.000000 -1.000000
vn 1.000000 0.000016 -0.000049
vn 1.000000 0.000016 -0.000049
vn 1.000000 0.000016 -0.000049
vn 1.000000 0.000016 -0.000049
vn -0.000000 0.000000 1.000000
vn -0.000000 0.000000 1.000000
vn -1.000000 -0.000023 -0.000010
vn -1.000000 -0.000023 -0.000010
vn 0.878368 -0.477985 0.000000
vn 0.878368 -0.477985 0.000000
vn 0.878368 -0.477985 0.000000
vn 0.878368 -0.477985 0.000000
vn -0.000000 0.000000 1.000000
vn -0.000000 0.000000 1.000000
vn -1.000000 0.000000 -0.000000
vn -1.000000 0.000000 -0.000000
vn 0.000000 -0.000000 -1.000000
vn 0.000000 -0.000000 -1.000000
vn 0.001772 -0.033691 -0.999431
vn 0.002812 -0.013454 -0.999906
vn -0.002812 0.013454 0.999906
vn -0.001772 0.033691 0.999431
vn -0.003018 -0.028815 -0.999580
vn 0.003018 0.028815 0.999580
vn -0.000000 0.000000 1.000000
vn 1.000000 0.000000 0.000000
vn 1.000000 0.000000 0.000000
vn 1.000000 0.000000 0.000000
vn 1.000000 0.000000 0.000000
vn 0.000000 -0.000000 -1.000000
vn -0.000153 -0.001591 -0.999999
vn -1.000000 0.000000 -0.000000
vn -1.000000 0.000000 -0.000000
vn -1.000000 0.000000 -0.000000
vn -1.000000 0.000000 -0.000000
vn 0.000153 0.001591 0.999999
vn 0.173631 -0.984793 0.005882
vn 0.173631 -0.984793 0.005882
vn 0.173631 -0.984793 0.005882
vn 0.173631 -0.984793 0.005882
vn 0.424304 -0.003714 -0.905512
vn 0.424304 -0.003714 -0.905512
vn 0.250196 0.968194 -0.001750
vn 0.250196 0.968194 -0.001750
vn 0.250196 0.968194 -0.001750
vn 0.250196 0.968194 -0.001750
vn 0.462122 0.003637 0.886809
vn 0.462122 0.003637 0.886809
s off
g Arma
usemtl lambert3SG
f 1/1/1 2/2/2 4/4/3 3/3/4
s 1
f 5/5/5 6/6/6 8/7/7 7/8/8
s 2
f 67/9/9 68/10/10 69/11/11 70/12/12
s 3
f 9/13/13 10/14/14 12/15/15 11/16/16
s 4
f 35/17/17 36/18/18 37/19/19 38/20/20
s 5
f 4/21/21 56/22/22 57/23/23 58/24/24
s off
f 77/25/25 78/26/26 79/27/27 80/28/28
f 64/29/29 63/30/30 65/31/31 66/32/32
s 3
f 12/33/15 10/34/14 15/35/33 13/36/34
s 2
f 69/37/11 68/38/10 71/39/35 72/40/36
s 1
f 8/41/7 6/42/6 14/43/37 16/44/38
s 4
f 35/45/17 38/46/20 41/47/39 42/48/40
s 1
f 5/49/5 7/50/8 19/51/41 18/52/42
s 2
f 67/53/9 70/54/12 73/55/43 74/56/44
s 3
f 9/57/13 11/58/16 17/59/45 20/60/46
s 1
f 7/61/8 8/62/7 22/63/47 21/64/48
s 3
f 10/65/14 9/66/13 24/67/49 23/68/50
s 1
f 8/69/7 16/70/38 25/71/51 22/72/47
s 5
f 58/73/24 57/74/23 59/75/52 60/76/53
s 3
f 15/77/33 10/78/14 23/79/50 26/80/54
f 9/81/13 20/82/46 27/83/55 24/84/49
s off
f 32/85/56 31/86/57 33/87/58 34/88/59
s 1
f 19/89/41 7/90/8 21/91/48 28/92/60
s 4
f 42/93/40 41/94/39 43/95/61 44/96/62
s 1
f 18/97/42 19/98/41 31/99/63 30/100/64
s 3
f 20/101/46 17/102/45 29/103/65 32/104/66
s 1
f 19/105/41 28/106/60 33/107/67 31/108/63
s off
f 28/109/68 27/110/69 34/111/70 33/112/71
s 3
f 27/113/55 20/114/46 32/115/66 34/116/72
f 11/117/16 12/118/15 36/119/73 35/120/74
s 1
f 6/121/6 5/122/5 38/123/75 37/124/76
s 3
f 12/125/15 13/126/34 39/127/77 36/128/73
s 6
f 13/129/78 14/130/79 40/131/80 39/132/81
s 1
f 14/133/37 6/134/6 37/135/76 40/136/82
f 5/137/5 18/138/42 41/139/83 38/140/75
s 3
f 17/141/45 11/142/16 35/143/74 42/144/84
s 1
f 18/145/42 30/146/64 43/147/85 41/148/83
s off
f 30/149/86 29/150/87 44/151/88 43/152/89
s 3
f 29/153/65 17/154/45 42/155/84 44/156/90
s 7
f 14/157/91 13/158/92 45/159/93 46/160/94
s 3
f 13/161/34 15/162/33 47/163/95 45/164/96
s 1
f 16/165/38 14/166/37 46/167/97 48/168/98
s 3
f 15/169/33 26/170/54 49/171/99 47/172/95
s 2
f 72/173/36 71/174/35 75/175/100 76/176/101
s 1
f 25/177/51 16/178/38 48/179/98 50/180/102
s 7
f 46/181/94 45/182/93 51/183/103 3/184/104
s 3
f 45/185/96 47/186/95 52/187/105 51/188/106
s 1
f 48/189/98 46/190/97 3/191/107 53/192/108
s 3
f 47/193/95 49/194/99 54/195/109 52/196/105
s 8
f 49/197/110 50/198/111 55/199/112 54/200/113
s 1
f 50/201/102 48/202/98 53/203/108 55/204/114
s off
f 1/205/115 61/206/116 62/207/117 2/208/118
s 3
f 51/209/106 52/210/105 57/211/119 56/212/120
s 1
f 53/213/108 3/214/107 4/215/121 58/216/122
s 3
f 52/217/105 54/218/109 59/219/123 57/220/119
s 8
f 54/221/113 55/222/112 60/223/124 59/224/125
s 1
f 55/225/114 53/226/108 58/227/122 60/228/126
s off
f 3/229/127 51/230/128 61/231/129 1/232/130
s 3
f 51/233/106 56/234/120 62/235/131 61/236/132
s 5
f 56/237/22 4/238/21 2/239/133 62/240/134
s off
f 37/241/135 36/242/136 63/243/137 64/244/138
s 3
f 36/245/73 39/246/77 65/247/139 63/248/140
s 6
f 39/249/81 40/250/80 66/251/141 65/252/142
s 1
f 40/253/82 37/254/76 64/255/143 66/256/144
f 21/257/48 22/258/47 68/259/145 67/260/146
s 3
f 23/261/50 24/262/49 70/263/147 69/264/148
s 1
f 22/265/47 25/266/51 71/267/149 68/268/145
s 3
f 26/269/54 23/270/50 69/271/148 72/272/150
f 24/273/49 27/274/55 73/275/151 70/276/147
s off
f 27/277/152 28/278/153 74/279/154 73/280/155
s 1
f 28/281/60 21/282/48 67/283/146 74/284/156
f 25/285/51 50/286/102 75/287/157 71/288/149
s off
f 50/289/158 49/290/159 76/291/160 75/292/161
s 3
f 49/293/99 26/294/54 72/295/150 76/296/162
s off
f 29/297/163 30/298/164 78/299/165 77/300/166
s 1
f 30/301/64 31/302/63 79/303/167 78/304/168
s off
f 31/305/169 32/306/170 80/307/171 79/308/172
s 3
f 32/309/66 29/310/65 77/311/173 80/312/174
