# This file uses meters as units for non-parametric coordinates.

mtllib CajasMunicion.mtl
g default
v -10.000000 -0.048911 5.738672
v 10.000000 -0.048911 5.738672
v -10.000000 -0.048911 -6.040833
v 10.000000 -0.048911 -6.040833
v 6.027002 -0.048911 10.000000
v 6.027002 -0.048911 5.738672
v 6.027002 -0.048911 -6.040833
v 6.027002 -0.048911 -10.000000
v -6.641345 -0.048911 -10.000000
v -6.641345 -0.048911 -6.040833
v -6.641345 -0.048911 5.738672
v -6.641345 -0.048911 10.000000
v -6.641345 7.397891 5.738672
v -6.641345 7.397891 -6.040833
v 6.027002 7.397891 5.738672
v 6.027002 7.397891 -6.040833
v -10.000000 -0.048911 8.320837
v -8.320837 -0.048911 10.000000
v -9.160425 -0.048911 9.775037
v -9.775037 -0.048911 9.160425
v -10.000000 9.951090 8.320837
v -9.775037 9.951090 9.160425
v -9.160425 9.951090 9.775037
v -8.320837 9.951090 10.000000
v 8.320837 -0.048911 10.000000
v 10.000000 -0.048911 8.320837
v 9.775037 -0.048911 9.160425
v 9.160425 -0.048911 9.775037
v 8.320837 9.951090 10.000000
v 9.160425 9.951090 9.775037
v 9.775037 9.951090 9.160425
v 10.000000 9.951090 8.320837
v -10.000000 9.951090 -8.320837
v -8.320837 9.951090 -10.000000
v -9.160425 9.951090 -9.775037
v -9.775037 9.951090 -9.160425
v -10.000000 -0.048911 -8.320837
v -9.775037 -0.048911 -9.160425
v -9.160425 -0.048911 -9.775037
v -8.320837 -0.048911 -10.000000
v 8.320837 9.951090 -10.000000
v 10.000000 9.951090 -8.320837
v 9.775037 9.951090 -9.160425
v 9.160425 9.951090 -9.775037
v 8.320837 -0.048911 -10.000000
v 9.160425 -0.048911 -9.775037
v 9.775037 -0.048911 -9.160425
v 10.000000 -0.048911 -8.320837
v -10.000000 9.951090 6.332349
v -9.160425 9.951090 5.738672
v -10.000000 9.111510 5.738672
v -9.160425 9.951090 -6.040833
v -10.000000 9.951090 -6.634509
v -10.000000 9.111510 -6.040833
v 10.000000 9.951090 6.332349
v 10.000000 9.111510 5.738672
v 9.160425 9.951090 5.738672
v 9.160425 9.951090 -6.040833
v 10.000000 9.111510 -6.040833
v 10.000000 9.951090 -6.634509
v 6.866577 9.951090 6.578247
v 6.027002 9.111510 5.738672
v -7.480920 9.951090 6.578247
v -6.641345 9.111510 5.738672
v 6.866577 9.951090 -6.880408
v 6.027002 9.111510 -6.040833
v -7.480920 9.951090 -6.880408
v -6.641345 9.111510 -6.040833
v 6.027002 9.111510 10.000000
v 6.620679 9.951090 10.000000
v 6.027002 9.951090 9.160425
v -7.235022 9.951090 10.000000
v -6.641345 9.111510 10.000000
v -6.641345 9.951090 9.160425
v 6.027002 9.951090 -9.160425
v 6.620679 9.951090 -10.000000
v 6.027002 9.111510 -10.000000
v -7.235022 9.951090 -10.000000
v -6.641345 9.951090 -9.160425
v -6.641345 9.111510 -10.000000
vt 0.375973 0.689553
vt 0.568323 0.689553
vt 0.568323 0.655008
vt 0.497674 0.747394
vt 0.497674 0.689553
vt 0.497674 0.655008
vt 0.435515 0.655008
vt 0.757221 0.627454
vt 0.076052 0.785416
vt 0.846319 0.627454
vt 0.875715 0.714040
vt 0.695885 0.714040
vt 0.405740 0.623697
vt 0.937051 0.627454
vt 0.375973 0.724602
vt 0.435515 0.689553
vt 0.435515 0.747394
vt 0.405740 0.747394
vt 0.538463 0.747394
vt 0.568323 0.724602
vt 0.375973 0.655008
vt 0.375973 0.636977
vt 0.846319 0.887210
vt 0.568323 0.636977
vt 0.395818 0.739797
vt 0.776790 0.627454
vt 0.385896 0.732200
vt 0.767006 0.627454
vt 0.563347 0.571067
vt 0.865916 0.627454
vt 0.558370 0.417534
vt 0.856118 0.627454
vt 0.051712 0.939952
vt 0.695885 0.707628
vt 0.695885 0.710834
vt 0.695885 0.630660
vt 0.375973 0.631413
vt 0.773175 0.888718
vt 0.695885 0.633866
vt 0.208986 0.942690
vt 0.946346 0.714040
vt 0.196779 0.942780
vt 0.853040 0.887070
vt 0.946346 0.627454
vt 0.859760 0.887210
vt 0.757221 0.714040
vt 0.695885 0.627454
vt 0.051117 0.403988
vt 0.875715 0.627454
vt 0.232074 0.403988
vt 0.937051 0.714040
vt 0.184572 0.785416
vt 0.786575 0.627454
vt 0.732687 0.627454
vt 0.900248 0.627454
vt 0.799978 0.627454
vt 0.827958 0.627454
vt 0.799978 0.887210
vt 0.497674 0.623697
vt 0.145352 0.127264
vt 0.145352 0.148253
vt 0.160609 0.053977
vt 0.160609 0.074966
vt 0.151221 0.772211
vt 0.100397 0.955894
vt 0.063882 0.858958
vt 0.151221 0.799905
vt 0.088227 0.844469
vt 0.100397 0.934248
vt 0.163819 0.912625
vt 0.795053 0.119196
vt 0.795053 0.189014
vt 0.875842 0.119196
vt 0.795053 0.119196
vt 0.875842 0.189014
vt 0.875842 0.119196
vt 0.795053 0.189014
vt 0.875842 0.189014
vt 0.051712 0.925806
vt 0.051712 0.908850
vt 0.063882 0.902881
vt 0.087324 0.910958
vt 0.786575 0.800625
vt 0.051712 0.932879
vt 0.846319 0.800625
vt 0.151221 0.934248
vt 0.196779 0.902881
vt 0.208986 0.908850
vt 0.208986 0.925806
vt 0.208986 0.848713
vt 0.196779 0.858958
vt 0.163991 0.841719
vt 0.853045 0.713899
vt 0.859760 0.714040
vt 0.208986 0.814395
vt 0.100397 0.799905
vt 0.051712 0.848713
vt 0.051712 0.814395
vt 0.773175 0.714040
vt 0.773175 0.714040
vt 0.738328 0.714040
vt 0.058049 0.901643
vt 0.705220 0.714040
vt 0.044847 0.901848
vt 0.894608 0.714040
vt 0.205246 0.901063
vt 0.218444 0.900648
vt 0.927716 0.714040
vt 0.159853 0.785416
vt 0.795240 0.714040
vt 0.100397 0.772212
vt 0.832711 0.800625
vt 0.151221 0.955894
vt 0.091791 0.942690
vt 0.217063 0.856747
vt 0.196779 0.902881
vt 0.170098 0.074966
vt 0.875842 0.189014
vt 0.875842 0.189014
vt 0.875842 0.189014
vt 0.651471 0.380417
vt 0.875842 0.189014
vt 0.875842 0.119196
vt 0.875842 0.119196
vt 0.875842 0.119196
vt 0.651471 0.088755
vt 0.875842 0.119196
vt 0.313977 0.380417
vt 0.795053 0.189014
vt 0.795053 0.189014
vt 0.795053 0.189014
vt 0.795053 0.189014
vt 0.795053 0.119196
vt 0.795053 0.119196
vt 0.795053 0.119196
vt 0.313977 0.088755
vt 0.795053 0.119196
vt 0.163819 0.912625
vt 0.895867 0.204504
vt 0.895867 0.204504
vt 0.163819 0.912625
vt 0.151221 0.934248
vt 0.151221 0.934248
vt 0.151221 0.934248
vt 0.100397 0.934248
vt 0.100397 0.934248
vt 0.100397 0.934248
vt 0.774272 0.201853
vt 0.774272 0.201853
vt 0.087324 0.910958
vt 0.087324 0.910958
vt 0.088227 0.844469
vt 0.775708 0.096164
vt 0.775708 0.096164
vt 0.088227 0.844469
vt 0.100397 0.799905
vt 0.100397 0.799905
vt 0.100397 0.799905
vt 0.151221 0.799905
vt 0.151221 0.799905
vt 0.151221 0.799905
vt 0.896141 0.091792
vt 0.896141 0.091792
vt 0.163991 0.841719
vt 0.163991 0.841719
vt 0.075534 0.148253
vt 0.063882 0.902881
vt 0.057366 0.857725
vt 0.063882 0.858958
vt 0.090791 0.074966
vt 0.196779 0.858958
vt 0.799978 0.807894
vt 0.053092 0.404246
vt 0.100397 0.955894
vt 0.225880 0.404246
vt 0.827958 0.807894
vt 0.151221 0.955894
vt 0.052464 0.569473
vt 0.799978 0.706770
vt 0.100397 0.772212
vt 0.827958 0.706770
vt 0.228350 0.569473
vt 0.151221 0.772211
vt 0.924429 0.706770
vt 0.232074 0.569473
vt 0.203865 0.857163
vt 0.058301 0.569473
vt 0.900248 0.706770
vt 0.090791 0.053977
vt 0.051117 0.569473
vt 0.708506 0.706770
vt 0.075534 0.127264
vt 0.732687 0.706770
vt 0.224889 0.569473
vt 0.044163 0.857931
vt 0.795240 0.800625
vt 0.091791 0.942690
vt 0.435515 0.623697
vt 0.435515 0.623697
vt 0.053092 0.569730
vt 0.159853 0.942690
vt 0.159853 0.942690
vt 0.846319 0.800625
vt 0.184572 0.942690
vt 0.091791 0.785416
vt 0.091791 0.785416
vt 0.832711 0.714040
vt 0.159853 0.785416
vt 0.846319 0.714040
vt 0.846319 0.714040
vt 0.497674 0.747394
vt 0.228350 0.403988
vt 0.937051 0.714040
vt 0.074504 0.074966
vt 0.066045 0.148253
vt 0.375973 0.655008
vt 0.708506 0.627454
vt 0.161639 0.148253
vt 0.375973 0.689553
vt 0.224889 0.403988
vt 0.937051 0.627454
vt 0.568323 0.623697
vt 0.859760 0.800625
vt 0.853040 0.887070
vt 0.553394 0.623497
vt 0.853040 0.800674
vt 0.853040 0.800674
vt 0.846319 0.887210
vt 0.538463 0.623697
vt 0.786575 0.887210
vt 0.786575 0.887210
vt 0.375973 0.625850
vt 0.773175 0.799118
vt 0.786575 0.800625
vt 0.076052 0.942690
vt 0.875715 0.714040
vt 0.859760 0.714040
vt 0.208986 0.785416
vt 0.865916 0.627454
vt 0.875715 0.627454
vt 0.853045 0.713899
vt 0.196788 0.785161
vt 0.856118 0.627454
vt 0.846319 0.627454
vt 0.786575 0.714040
vt 0.786575 0.714040
vt 0.773175 0.714040
vt 0.051712 0.785416
vt 0.776790 0.627454
vt 0.786575 0.627454
vt 0.773175 0.714040
vt 0.051712 0.785416
vt 0.767006 0.627454
vt 0.757221 0.714040
vt 0.757221 0.627454
vt 0.568323 0.655008
vt 0.924429 0.627454
vt 0.052464 0.403988
vt 0.435515 0.747394
vt 0.435515 0.689553
vt 0.435515 0.689553
vt 0.435515 0.689553
vt 0.435515 0.655008
vt 0.435515 0.655008
vt 0.435515 0.655008
vt 0.497674 0.689553
vt 0.497674 0.689553
vt 0.497674 0.689553
vt 0.497674 0.655008
vt 0.497674 0.655008
vt 0.497674 0.655008
vt 0.497674 0.623697
vt 0.827958 0.887210
vt 0.225880 0.569730
vt 0.058301 0.403988
vt 0.568323 0.689553
vn 0.000000 0.000000 1.000000
vn 0.072181 0.000000 0.997392
vn 0.072181 0.000000 0.997392
vn 0.000000 0.000000 1.000000
vn 0.000000 0.000000 1.000000
vn 0.997814 0.000000 0.066083
vn 0.997814 0.000000 0.066083
vn 1.000000 0.000000 0.000000
vn 1.000000 0.000000 0.000000
vn 1.000000 0.000000 0.000000
vn -1.000000 0.000000 0.000000
vn -0.997814 0.000000 0.066083
vn -0.997814 0.000000 0.066083
vn -1.000000 0.000000 0.000000
vn -1.000000 0.000000 0.000000
vn -1.000000 0.000000 0.000000
vn -1.000000 0.000000 0.000000
vn 0.000000 -1.000000 0.000000
vn 0.000000 -1.000000 0.000000
vn 0.000000 -1.000000 0.000000
vn 0.000000 -1.000000 0.000000
vn 1.000000 0.000000 0.000000
vn 1.000000 0.000000 0.000000
vn -0.997368 0.000000 -0.072503
vn -0.997368 0.000000 -0.072503
vn -1.000000 0.000000 0.000000
vn -0.089831 0.000000 0.995957
vn -0.089831 0.000000 0.995957
vn 0.000000 0.000000 1.000000
vn 0.000000 0.000000 1.000000
vn 0.000000 0.000000 1.000000
vn 0.000000 -1.000000 0.000000
vn 0.000000 -1.000000 0.000000
vn 0.000000 -1.000000 0.000000
vn 0.000000 -1.000000 0.000000
vn -0.089831 0.000000 -0.995957
vn -0.089831 0.000000 -0.995957
vn 0.000000 0.000000 -1.000000
vn 0.000000 0.000000 -1.000000
vn 0.000000 0.000000 -1.000000
vn 0.000000 1.000000 0.000000
vn 0.000000 1.000000 0.000000
vn 0.000000 1.000000 0.000000
vn 0.000000 1.000000 0.000000
vn 0.000000 0.000000 -1.000000
vn 0.000000 0.000000 -1.000000
vn 0.000000 -1.000000 0.000000
vn 0.000000 -1.000000 0.000000
vn 0.000000 -1.000000 0.000000
vn 0.000000 -1.000000 0.000000
vn -0.965927 0.000000 0.258816
vn -0.965927 0.000000 0.258816
vn -0.707107 0.000000 0.707106
vn -0.707107 0.000000 0.707106
vn -0.707107 0.000000 0.707106
vn -0.707107 0.000000 0.707106
vn -0.258815 0.000000 0.965927
vn -0.258815 0.000000 0.965927
vn 0.258815 0.000000 0.965927
vn 0.258815 0.000000 0.965927
vn 0.707107 0.000000 0.707106
vn 0.707107 0.000000 0.707106
vn 0.707107 0.000000 0.707106
vn 0.707107 0.000000 0.707106
vn 0.965927 0.000000 0.258816
vn 0.965927 0.000000 0.258816
vn -0.965927 0.000000 -0.258816
vn -0.965927 0.000000 -0.258816
vn -0.707107 0.000000 -0.707106
vn -0.707107 0.000000 -0.707106
vn -0.707107 0.000000 -0.707106
vn -0.707107 0.000000 -0.707106
vn -0.258815 0.000000 -0.965927
vn -0.258815 0.000000 -0.965927
vn 0.072181 0.000000 -0.997392
vn 0.258815 0.000000 -0.965927
vn 0.258815 0.000000 -0.965927
vn 0.072181 0.000000 -0.997392
vn 0.707107 0.000000 -0.707106
vn 0.707107 0.000000 -0.707106
vn 0.707107 0.000000 -0.707106
vn 0.707107 0.000000 -0.707106
vn 0.965927 0.000000 -0.258816
vn 0.997368 0.000000 -0.072503
vn 0.997368 0.000000 -0.072503
vn 0.965927 0.000000 -0.258816
vn 0.000000 -1.000000 0.000000
vn 0.000000 -1.000000 0.000000
vn 0.000000 -1.000000 0.000000
vn 0.000000 -1.000000 0.000000
vn 0.000000 -1.000000 0.000000
vn 0.000000 -1.000000 0.000000
vn 0.000000 -1.000000 0.000000
vn 0.000000 -1.000000 0.000000
vn 0.000000 -1.000000 0.000000
vn 0.000000 -1.000000 0.000000
vn 0.000000 -1.000000 0.000000
vn 0.000000 -1.000000 0.000000
vn 0.000000 -1.000000 0.000000
vn 0.000000 -1.000000 0.000000
vn 0.000000 -1.000000 0.000000
vn 0.000000 -1.000000 0.000000
vn 1.000000 0.000000 0.000000
vn 0.000000 0.000000 -1.000000
vn -0.707109 0.707105 0.000000
vn -0.707109 0.707105 0.000000
vn -0.707109 0.707105 0.000000
vn -0.707109 0.707105 0.000000
vn 0.707109 0.707105 0.000000
vn 0.707109 0.707105 0.000000
vn 0.707109 0.707105 0.000000
vn 0.707109 0.707105 0.000000
vn 0.000000 0.707105 -0.707109
vn 0.000000 0.707105 -0.707109
vn 0.000000 0.707105 -0.707109
vn 0.000000 0.707105 -0.707109
vn -0.707109 0.707105 0.000000
vn -0.707109 0.707105 0.000000
vn -0.707109 0.707105 0.000000
vn -0.707109 0.707105 0.000000
vn 0.707109 0.707105 0.000000
vn 0.707109 0.707105 0.000000
vn 0.707109 0.707105 0.000000
vn 0.707109 0.707105 0.000000
vn 0.000000 0.707105 0.707109
vn 0.000000 0.707105 0.707109
vn 0.000000 0.707105 0.707109
vn 0.000000 0.707105 0.707109
vn 0.000000 0.707105 0.707109
vn 0.000000 0.707105 0.707109
vn 0.000000 0.707105 0.707109
vn 0.000000 0.707105 0.707109
vn 0.000000 0.707105 -0.707109
vn 0.000000 0.707105 -0.707109
vn 0.000000 0.707105 -0.707109
vn 0.000000 0.707105 -0.707109
vn 0.000000 1.000000 -0.000000
vn 0.000000 1.000000 0.000000
vn 0.000000 1.000000 -0.000000
vn 0.000000 1.000000 0.000000
vn 0.000000 1.000000 0.000000
vn 0.000000 1.000000 0.000000
vn 0.000000 1.000000 0.000000
vn 0.000000 1.000000 -0.000000
vn 0.000000 1.000000 0.000000
vn 0.000000 1.000000 0.000000
vn 0.000000 1.000000 -0.000000
vn 0.000000 1.000000 -0.000000
vn 1.000000 0.000000 0.000000
vn 1.000000 0.000000 0.000000
vn 1.000000 0.000000 0.000000
vn 1.000000 0.000000 0.000000
vn 0.000000 0.000000 -1.000000
vn 0.000000 0.000000 -1.000000
vn 0.000000 0.000000 -1.000000
vn 0.000000 0.000000 -1.000000
vn -1.000000 0.000000 0.000000
vn -1.000000 0.000000 0.000000
vn -1.000000 0.000000 0.000000
vn -1.000000 0.000000 0.000000
vn 0.000000 0.000000 1.000000
vn 0.000000 0.000000 1.000000
vn 0.000000 0.000000 1.000000
vn 0.000000 0.000000 1.000000
vn 0.000000 1.000000 0.000000
vn 0.000000 1.000000 0.000000
vn 0.000000 1.000000 0.000000
vn 0.000000 1.000000 0.000000
vn 0.000000 1.000000 0.000000
vn 0.000000 1.000000 0.000000
vn 0.000000 1.000000 0.000000
vn 0.000000 1.000000 0.000000
vn 0.000000 1.000000 0.000000
vn 0.000000 1.000000 0.000000
vn 0.000000 1.000000 0.000000
vn 0.000000 1.000000 0.000000
vn 0.000000 1.000000 -0.000000
vn 0.000000 1.000000 -0.000000
vn 0.000000 1.000000 -0.000000
vn 0.000000 1.000000 -0.000000
vn 0.000000 1.000000 -0.000000
vn 0.000000 1.000000 -0.000000
vn 0.000000 1.000000 0.000000
vn 0.000000 1.000000 0.000000
vn 0.000000 1.000000 0.000000
vn 0.000000 1.000000 0.000000
vn 0.000000 1.000000 0.000000
vn 0.000000 1.000000 0.000000
vn -0.500004 0.500001 -0.707103
vn -0.500004 0.500001 -0.707103
vn -0.500004 0.500001 -0.707103
vn -0.500004 0.500001 0.707103
vn -0.500004 0.500001 0.707103
vn -0.500004 0.500001 0.707103
vn 0.500004 0.500001 -0.707103
vn 0.500004 0.500001 -0.707103
vn 0.500004 0.500001 -0.707103
vn 0.500004 0.500001 0.707103
vn 0.500004 0.500001 0.707103
vn 0.500004 0.500001 0.707103
vn -0.707103 0.500001 0.500004
vn -0.707103 0.500001 0.500004
vn -0.707103 0.500001 0.500004
vn 0.707103 0.500001 0.500004
vn 0.707103 0.500001 0.500004
vn 0.707103 0.500001 0.500004
vn -0.707103 0.500001 -0.500004
vn -0.707103 0.500001 -0.500004
vn -0.707103 0.500001 -0.500004
vn 0.707103 0.500001 -0.500004
vn 0.707103 0.500001 -0.500004
vn 0.707103 0.500001 -0.500004
s 1
g pCube1
usemtl lambert2SG
f 5/57/1 25/10/2 29/210/3 70/207/4 69/181/5
s 2
f 32/11/6 26/240/7 2/55/8 56/188/9 55/105/10
s 3
f 1/54/11 17/8/12 21/254/13 49/101/14 51/193/15
f 3/48/16 1/220/11 51/194/15 54/190/17
s 4
f 7/269/18 4/256/19 2/276/20 6/267/21
s 2
f 59/185/22 56/187/9 2/275/8 4/50/23
s 3
f 33/12/24 37/47/25 3/217/16 54/191/17 53/103/26
s 1
f 24/245/27 18/250/28 12/56/29 73/179/30 72/110/31
s 4
f 3/21/32 10/265/33 11/261/34 1/219/35
s 7
f 40/230/36 34/234/37 78/196/38 80/172/39 9/58/40
s off
f 14/128/41 13/136/42 15/126/43 16/121/44
s 7
f 9/200/40 80/173/39 77/175/45 8/274/46
s 4
f 10/263/33 9/199/47 8/59/48 7/271/18
f 11/260/34 10/7/33 7/6/18 6/268/21
f 12/17/49 11/16/34 6/5/21 5/211/50
s 1
f 69/182/5 73/178/30 12/258/29 5/212/1
s 3
f 17/255/12 20/28/51 22/251/52 21/46/13
s off
f 20/253/53 19/26/54 23/247/55 22/99/56
s 1
f 19/249/57 18/53/28 24/246/27 23/100/58
f 25/244/2 28/32/59 30/241/60 29/209/3
s off
f 28/243/61 27/30/62 31/237/63 30/93/64
s 2
f 27/239/65 26/49/7 32/236/6 31/94/66
s 3
f 33/12/24 36/35/67 38/36/68 37/47/25
s off
f 36/35/69 35/34/70 39/39/71 38/36/72
s 7
f 35/233/73 34/83/37 40/231/36 39/38/74
f 41/203/75 44/226/76 46/224/77 45/23/78
s off
f 44/227/79 43/223/80 47/45/81 46/43/82
s 2
f 43/41/83 42/51/84 48/221/85 47/44/86
s 4
f 17/15/87 1/1/35 11/262/34 12/259/49 18/18/88 19/25/89 20/27/90
f 25/19/91 5/4/50 6/266/21 2/2/20 26/20/92 27/29/93 28/31/94
f 9/198/47 10/264/33 3/216/32 37/22/95 38/37/96 39/232/97 40/13/98
f 4/3/19 7/270/18 8/272/48 45/229/99 46/225/100 47/222/101 48/24/102
s 2
f 60/108/103 59/184/22 4/257/23 48/14/85 42/213/84
s 7
f 77/176/45 76/112/104 41/85/75 45/228/78 8/273/46
s off
f 51/195/105 50/168/106 52/102/107 54/104/108
f 57/107/109 56/106/110 59/186/111 58/115/112
f 61/162/113 62/124/114 64/133/115 63/154/116
f 62/123/117 61/163/118 65/139/119 66/119/120
f 63/153/121 64/134/122 68/130/123 67/149/124
f 66/118/125 65/140/126 67/148/127 68/131/128
f 69/183/129 71/160/130 74/156/131 73/111/132
f 75/142/133 77/113/134 80/174/135 79/146/136
s 8
f 65/138/137 61/164/138 57/91/139 58/87/140
f 52/81/141 50/169/142 63/152/143 67/150/144
f 74/96/145 71/161/146 61/92/138 63/155/143
f 75/86/147 79/147/148 67/82/144 65/141/137
s off
f 68/77/149 64/135/150 13/74/151 14/129/152
f 64/71/153 62/125/154 15/76/155 13/137/156
f 62/73/157 66/120/158 16/78/159 15/127/160
f 66/75/161 68/132/162 14/72/163 16/122/164
s 8
f 33/79/165 53/80/166 52/167/141 67/151/144 79/69/148 78/114/167 34/235/168 35/33/169 36/84/170
f 41/204/171 76/201/172 75/144/147 65/70/137 58/116/140 60/88/173 42/89/174 43/40/175 44/42/176
f 55/90/177 57/171/139 61/165/138 71/67/146 70/109/178 29/52/179 30/242/180 31/238/181 32/95/182
f 72/205/183 74/158/145 63/68/143 50/66/142 49/97/184 21/98/185 22/252/186 23/248/187 24/9/188
s off
f 49/218/189 50/61/190 51/60/191
f 52/166/192 53/215/193 54/192/194
f 55/214/195 56/189/196 57/170/197
f 58/63/198 59/62/199 60/117/200
f 69/64/201 70/208/202 71/159/203
f 72/206/204 73/180/205 74/157/206
f 75/143/207 76/202/208 77/177/209
f 78/197/210 79/145/211 80/65/212
